<svg width="50" height="50" viewBox="0 0 50 50" fill="none" xmlns="http://www.w3.org/2000/svg">
<path d="M25 16.6667V43.75M10.4167 25H39.5833M10.4167 25C9.3116 25 8.25179 24.561 7.47039 23.7796C6.68899 22.9982 6.25 21.9384 6.25 20.8333C6.25 19.7283 6.68899 18.6685 7.47039 17.8871C8.25179 17.1057 9.3116 16.6667 10.4167 16.6667H39.5833C40.6884 16.6667 41.7482 17.1057 42.5296 17.8871C43.311 18.6685 43.75 19.7283 43.75 20.8333C43.75 21.9384 43.311 22.9982 42.5296 23.7796C41.7482 24.561 40.6884 25 39.5833 25M10.4167 25V39.5833C10.4167 40.6884 10.8557 41.7482 11.6371 42.5296C12.4185 43.311 13.4783 43.75 14.5833 43.75H35.4167C36.5217 43.75 37.5815 43.311 38.3629 42.5296C39.1443 41.7482 39.5833 40.6884 39.5833 39.5833V25M25 16.6667V12.5C25 11.6759 25.2444 10.8703 25.7022 10.1851C26.16 9.49992 26.8108 8.96587 27.5722 8.6505C28.3335 8.33513 29.1713 8.25262 29.9795 8.41339C30.7878 8.57416 31.5302 8.971 32.1129 9.55372C32.6957 10.1364 33.0925 10.8789 33.2533 11.6871C33.414 12.4954 33.3315 13.3332 33.0162 14.0945C32.7008 14.8559 32.1667 15.5066 31.4815 15.9645C30.7963 16.4223 29.9908 16.6667 29.1667 16.6667H25ZM25 16.6667V11.4583C25 10.4282 24.6945 9.42124 24.1222 8.56474C23.5499 7.70823 22.7365 7.04067 21.7848 6.64646C20.8331 6.25225 19.7859 6.14911 18.7756 6.35008C17.7653 6.55104 16.8372 7.04709 16.1088 7.77548C15.3804 8.50388 14.8844 9.43192 14.6834 10.4422C14.4824 11.4526 14.5856 12.4998 14.9798 13.4515C15.374 14.4032 16.0416 15.2166 16.8981 15.7889C17.7546 16.3612 18.7616 16.6667 19.7917 16.6667H25Z" stroke="black" stroke-width="3" stroke-linecap="round" stroke-linejoin="round"/>
</svg>
