<svg width="50" height="50" viewBox="0 0 50 50" fill="none" xmlns="http://www.w3.org/2000/svg">
<path d="M36.1608 38.6905H46.5774V34.5238C46.5773 33.2249 46.1726 31.9583 45.4194 30.9001C44.6662 29.8419 43.602 29.0446 42.3748 28.6191C41.1476 28.1936 39.8183 28.1611 38.5717 28.5259C37.3251 28.8908 36.2232 29.635 35.4191 30.6551M36.1608 38.6905H15.3274M36.1608 38.6905V34.5238C36.1608 33.1571 35.8983 31.8509 35.4191 30.6551M35.4191 30.6551C34.6454 28.7216 33.3103 27.0644 31.5858 25.897C29.8613 24.7296 27.8266 24.1057 25.7441 24.1057C23.6616 24.1057 21.6269 24.7296 19.9024 25.897C18.1779 27.0644 16.8428 28.7216 16.0691 30.6551M15.3274 38.6905H4.91077V34.5238C4.91086 33.2249 5.31563 31.9583 6.06881 30.9001C6.82199 29.8419 7.88615 29.0446 9.11337 28.6191C10.3406 28.1936 11.6699 28.1611 12.9165 28.5259C14.1631 28.8908 15.265 29.635 16.0691 30.6551M15.3274 38.6905V34.5238C15.3274 33.1571 15.5899 31.8509 16.0691 30.6551M31.9941 11.6072C31.9941 13.2648 31.3356 14.8545 30.1635 16.0266C28.9914 17.1987 27.4017 17.8572 25.7441 17.8572C24.0865 17.8572 22.4968 17.1987 21.3247 16.0266C20.1526 14.8545 19.4941 13.2648 19.4941 11.6072C19.4941 9.94955 20.1526 8.35984 21.3247 7.18773C22.4968 6.01563 24.0865 5.35715 25.7441 5.35715C27.4017 5.35715 28.9914 6.01563 30.1635 7.18773C31.3356 8.35984 31.9941 9.94955 31.9941 11.6072ZM44.7917 20.1932C44.7917 21.2983 44.3527 22.3581 43.5713 23.1395C42.7899 23.9209 41.7301 24.3599 40.6251 24.3599C39.52 24.3599 38.4602 23.9209 37.6788 23.1395C36.8974 22.3581 36.4584 21.2983 36.4584 20.1932C36.4584 19.0882 36.8974 18.0284 37.6788 17.247C38.4602 16.4656 39.52 16.0266 40.6251 16.0266C41.7301 16.0266 42.7899 16.4656 43.5713 17.247C44.3527 18.0284 44.7917 19.0882 44.7917 20.1932ZM15.3274 17.8572C15.3274 18.9622 14.8884 20.022 14.107 20.8034C13.3256 21.5848 12.2658 22.0238 11.1608 22.0238C10.0557 22.0238 8.99589 21.5848 8.21449 20.8034C7.43309 20.022 6.9941 18.9622 6.9941 17.8572C6.9941 16.7521 7.43309 15.6923 8.21449 14.9109C8.99589 14.1295 10.0557 13.6905 11.1608 13.6905C12.2658 13.6905 13.3256 14.1295 14.107 14.9109C14.8884 15.6923 15.3274 16.7521 15.3274 17.8572Z" stroke="black" stroke-width="3" stroke-linecap="round" stroke-linejoin="round"/>
</svg>
